<svg xmlns="http://www.w3.org/2000/svg" xmlns:xlink="http://www.w3.org/1999/xlink" width="60" zoomAndPan="magnify" viewBox="0 0 45 44.999999" height="60" preserveAspectRatio="xMidYMid meet" version="1.0"><defs><clipPath id="49eab40ba3"><path d="M 5.914062 5 L 40 5 L 40 39 L 5.914062 39 Z M 5.914062 5 " clip-rule="nonzero"/></clipPath><clipPath id="32f4ff14f8"><path d="M 6 4.5 L 40.414062 4.5 L 40.414062 39 L 6 39 Z M 6 4.5 " clip-rule="nonzero"/></clipPath><clipPath id="90ae5cb775"><path d="M 6 4.5 L 40.414062 4.5 L 40.414062 39 L 6 39 Z M 6 4.5 " clip-rule="nonzero"/></clipPath></defs><g clip-path="url(#49eab40ba3)"><path fill="#000000" d="M 6.84375 15.6875 L 5.914062 15.6875 L 5.914062 6.363281 L 6.84375 6.363281 L 6.84375 5.433594 L 16.167969 5.433594 L 16.167969 6.363281 L 17.101562 6.363281 L 17.101562 8.230469 L 16.167969 8.230469 L 16.167969 9.164062 L 9.640625 9.164062 L 9.640625 15.6875 L 8.710938 15.6875 L 8.710938 16.621094 L 6.84375 16.621094 Z M 16.167969 35.269531 L 9.640625 35.269531 L 9.640625 28.742188 L 8.710938 28.742188 L 8.710938 27.8125 L 6.84375 27.8125 L 6.84375 28.742188 L 5.914062 28.742188 L 5.914062 38.066406 L 6.84375 38.066406 L 6.84375 39 L 16.167969 39 L 16.167969 38.066406 L 17.101562 38.066406 L 17.101562 36.203125 L 16.167969 36.203125 Z M 29.222656 33.40625 L 32.953125 33.40625 L 32.953125 32.472656 L 33.886719 32.472656 L 33.886719 11.960938 L 32.953125 11.960938 L 32.953125 11.027344 L 12.441406 11.027344 L 12.441406 11.960938 L 11.507812 11.960938 L 11.507812 32.472656 L 12.441406 32.472656 L 12.441406 33.40625 Z M 38.546875 6.363281 L 38.546875 5.433594 L 29.222656 5.433594 L 29.222656 6.363281 L 28.289062 6.363281 L 28.289062 8.230469 L 29.222656 8.230469 L 29.222656 9.164062 L 35.75 9.164062 L 35.75 15.6875 L 36.683594 15.6875 L 36.683594 16.621094 L 38.546875 16.621094 L 38.546875 15.6875 L 39.480469 15.6875 L 39.480469 6.363281 Z M 38.546875 27.8125 L 36.683594 27.8125 L 36.683594 28.742188 L 35.75 28.742188 L 35.75 35.269531 L 29.222656 35.269531 L 29.222656 36.203125 L 28.289062 36.203125 L 28.289062 38.066406 L 29.222656 38.066406 L 29.222656 39 L 38.546875 39 L 38.546875 38.066406 L 39.480469 38.066406 L 39.480469 28.742188 L 38.546875 28.742188 Z M 38.546875 27.8125 " fill-opacity="0.3" fill-rule="nonzero"/></g><g clip-path="url(#32f4ff14f8)"><path fill="#000000" d="M 7.777344 14.757812 L 6.84375 14.757812 L 6.84375 5.433594 L 7.777344 5.433594 L 7.777344 4.5 L 17.101562 4.5 L 17.101562 5.433594 L 18.035156 5.433594 L 18.035156 7.296875 L 17.101562 7.296875 L 17.101562 8.230469 L 10.574219 8.230469 L 10.574219 14.757812 L 9.640625 14.757812 L 9.640625 15.6875 L 7.777344 15.6875 Z M 17.101562 34.335938 L 10.574219 34.335938 L 10.574219 27.8125 L 9.640625 27.8125 L 9.640625 26.878906 L 7.777344 26.878906 L 7.777344 27.8125 L 6.84375 27.8125 L 6.84375 37.136719 L 7.777344 37.136719 L 7.777344 38.066406 L 17.101562 38.066406 L 17.101562 37.136719 L 18.035156 37.136719 L 18.035156 35.269531 L 17.101562 35.269531 Z M 30.15625 32.472656 L 33.886719 32.472656 L 33.886719 31.539062 L 34.816406 31.539062 L 34.816406 11.027344 L 33.886719 11.027344 L 33.886719 10.09375 L 13.371094 10.09375 L 13.371094 11.027344 L 12.441406 11.027344 L 12.441406 31.539062 L 13.371094 31.539062 L 13.371094 32.472656 Z M 39.480469 5.433594 L 39.480469 4.5 L 30.15625 4.5 L 30.15625 5.433594 L 29.222656 5.433594 L 29.222656 7.296875 L 30.15625 7.296875 L 30.15625 8.230469 L 36.683594 8.230469 L 36.683594 14.757812 L 37.613281 14.757812 L 37.613281 15.6875 L 39.480469 15.6875 L 39.480469 14.757812 L 40.414062 14.757812 L 40.414062 5.433594 Z M 39.480469 26.878906 L 37.613281 26.878906 L 37.613281 27.8125 L 36.683594 27.8125 L 36.683594 34.335938 L 30.15625 34.335938 L 30.15625 35.269531 L 29.222656 35.269531 L 29.222656 37.136719 L 30.15625 37.136719 L 30.15625 38.066406 L 39.480469 38.066406 L 39.480469 37.136719 L 40.414062 37.136719 L 40.414062 27.8125 L 39.480469 27.8125 Z M 39.480469 26.878906 " fill-opacity="1" fill-rule="nonzero"/></g><path fill="#ffffff" d="M 32.953125 11.027344 L 13.371094 11.027344 L 13.371094 31.539062 L 33.886719 31.539062 L 33.886719 11.027344 Z M 32.953125 11.027344 " fill-opacity="1" fill-rule="nonzero"/><path fill="#1ca4ff" d="M 39.480469 5.433594 L 39.480469 14.757812 L 37.613281 14.757812 L 37.613281 7.296875 L 30.15625 7.296875 L 30.15625 5.433594 Z M 37.613281 27.8125 L 37.613281 35.269531 L 30.15625 35.269531 L 30.15625 37.136719 L 39.480469 37.136719 L 39.480469 27.8125 Z M 15.238281 35.269531 L 9.640625 35.269531 L 9.640625 27.8125 L 7.777344 27.8125 L 7.777344 37.136719 L 17.101562 37.136719 L 17.101562 35.269531 Z M 15.238281 5.433594 L 7.777344 5.433594 L 7.777344 14.757812 L 9.640625 14.757812 L 9.640625 7.296875 L 17.101562 7.296875 L 17.101562 5.433594 Z M 15.238281 5.433594 " fill-opacity="1" fill-rule="nonzero"/><g clip-path="url(#90ae5cb775)"><path fill="#000000" d="M 39.480469 27.8125 L 40.414062 27.8125 L 40.414062 37.136719 L 39.480469 37.136719 Z M 39.480469 5.433594 L 39.480469 14.757812 L 40.414062 14.757812 L 40.414062 5.433594 Z M 39.480469 27.8125 L 39.480469 26.878906 L 37.613281 26.878906 L 37.613281 27.8125 Z M 37.613281 37.136719 L 30.15625 37.136719 L 30.15625 38.066406 L 39.480469 38.066406 L 39.480469 37.136719 Z M 37.613281 14.757812 L 37.613281 15.6875 L 39.480469 15.6875 L 39.480469 14.757812 Z M 37.613281 12.890625 L 37.613281 7.296875 L 30.15625 7.296875 L 30.15625 8.230469 L 36.683594 8.230469 L 36.683594 14.757812 L 37.613281 14.757812 Z M 33.886719 12.890625 L 33.886719 31.539062 L 34.816406 31.539062 L 34.816406 11.027344 L 33.886719 11.027344 Z M 32.019531 35.269531 L 37.613281 35.269531 L 37.613281 27.8125 L 36.683594 27.8125 L 36.683594 34.335938 L 30.15625 34.335938 L 30.15625 35.269531 Z M 32.019531 29.675781 L 32.019531 28.742188 L 31.089844 28.742188 L 31.089844 29.675781 Z M 32.019531 27.8125 L 32.019531 26.878906 L 31.089844 26.878906 L 31.089844 27.8125 Z M 32.019531 25.945312 L 32.019531 25.011719 L 31.089844 25.011719 L 31.089844 25.945312 Z M 32.019531 24.082031 L 32.019531 23.148438 L 31.089844 23.148438 L 31.089844 24.082031 Z M 32.019531 19.417969 L 32.019531 18.488281 L 31.089844 18.488281 L 31.089844 19.417969 Z M 32.019531 5.433594 L 39.480469 5.433594 L 39.480469 4.5 L 30.15625 4.5 L 30.15625 5.433594 Z M 30.15625 26.878906 L 31.089844 26.878906 L 31.089844 25.945312 L 30.15625 25.945312 Z M 30.15625 25.011719 L 31.089844 25.011719 L 31.089844 24.082031 L 30.15625 24.082031 Z M 30.15625 20.351562 L 30.15625 23.148438 L 31.089844 23.148438 L 31.089844 22.214844 L 32.019531 22.214844 L 32.019531 21.285156 L 31.089844 21.285156 L 31.089844 19.417969 L 30.15625 19.417969 Z M 31.089844 18.488281 L 30.15625 18.488281 L 30.15625 17.554688 L 27.359375 17.554688 L 27.359375 12.890625 L 32.019531 12.890625 L 32.019531 17.554688 L 31.089844 17.554688 Z M 30.15625 16.621094 L 31.089844 16.621094 L 31.089844 13.824219 L 28.289062 13.824219 L 28.289062 16.621094 Z M 30.15625 35.269531 L 29.222656 35.269531 L 29.222656 37.136719 L 30.15625 37.136719 Z M 30.15625 32.472656 L 33.886719 32.472656 L 33.886719 31.539062 L 13.371094 31.539062 L 13.371094 32.472656 Z M 29.222656 27.8125 L 29.222656 29.675781 L 30.15625 29.675781 L 30.15625 28.742188 L 31.089844 28.742188 L 31.089844 27.8125 Z M 29.222656 25.945312 L 30.15625 25.945312 L 30.15625 25.011719 L 29.222656 25.011719 Z M 30.15625 24.082031 L 30.15625 23.148438 L 29.222656 23.148438 L 29.222656 24.082031 Z M 30.15625 18.488281 L 29.222656 18.488281 L 29.222656 19.417969 L 30.15625 19.417969 Z M 29.222656 15.6875 L 30.15625 15.6875 L 30.15625 14.757812 L 29.222656 14.757812 Z M 30.15625 5.433594 L 29.222656 5.433594 L 29.222656 7.296875 L 30.15625 7.296875 Z M 29.222656 25.945312 L 28.289062 25.945312 L 28.289062 27.8125 L 29.222656 27.8125 Z M 28.289062 24.082031 L 28.289062 25.011719 L 29.222656 25.011719 L 29.222656 24.082031 Z M 29.222656 22.214844 L 28.289062 22.214844 L 28.289062 23.148438 L 29.222656 23.148438 Z M 29.222656 19.417969 L 28.289062 19.417969 L 28.289062 20.351562 L 29.222656 20.351562 Z M 28.289062 29.675781 L 28.289062 28.742188 L 27.359375 28.742188 L 27.359375 29.675781 Z M 27.359375 25.011719 L 27.359375 25.945312 L 28.289062 25.945312 L 28.289062 25.011719 Z M 27.359375 22.214844 L 28.289062 22.214844 L 28.289062 20.351562 L 27.359375 20.351562 Z M 27.359375 28.742188 L 27.359375 27.8125 L 26.425781 27.8125 L 26.425781 28.742188 Z M 26.425781 26.878906 L 27.359375 26.878906 L 27.359375 25.945312 L 26.425781 25.945312 Z M 27.359375 24.082031 L 28.289062 24.082031 L 28.289062 23.148438 L 26.425781 23.148438 L 26.425781 24.082031 Z M 25.492188 29.675781 L 26.425781 29.675781 L 26.425781 28.742188 L 25.492188 28.742188 Z M 25.492188 27.8125 L 26.425781 27.8125 L 26.425781 26.878906 L 25.492188 26.878906 Z M 26.425781 25.945312 L 26.425781 25.011719 L 25.492188 25.011719 L 25.492188 25.945312 Z M 26.425781 19.417969 L 26.425781 20.351562 L 27.359375 20.351562 L 27.359375 18.488281 L 25.492188 18.488281 L 25.492188 19.417969 Z M 26.425781 17.554688 L 26.425781 16.621094 L 25.492188 16.621094 L 25.492188 17.554688 Z M 26.425781 15.6875 L 26.425781 14.757812 L 25.492188 14.757812 L 25.492188 15.6875 Z M 24.5625 27.8125 L 24.5625 28.742188 L 25.492188 28.742188 L 25.492188 27.8125 Z M 24.5625 18.488281 L 25.492188 18.488281 L 25.492188 17.554688 L 24.5625 17.554688 Z M 25.492188 14.757812 L 25.492188 13.824219 L 24.5625 13.824219 L 24.5625 12.890625 L 23.628906 12.890625 L 23.628906 14.757812 Z M 23.628906 26.878906 L 23.628906 27.8125 L 24.5625 27.8125 L 24.5625 26.878906 Z M 24.5625 19.417969 L 24.5625 18.488281 L 23.628906 18.488281 L 23.628906 20.351562 L 24.5625 20.351562 Z M 24.5625 16.621094 L 25.492188 16.621094 L 25.492188 15.6875 L 23.628906 15.6875 L 23.628906 17.554688 L 24.5625 17.554688 Z M 22.695312 28.742188 L 22.695312 29.675781 L 23.628906 29.675781 L 23.628906 27.8125 L 22.695312 27.8125 Z M 22.695312 26.878906 L 23.628906 26.878906 L 23.628906 25.945312 L 22.695312 25.945312 Z M 23.628906 20.351562 L 22.695312 20.351562 L 22.695312 22.214844 L 23.628906 22.214844 Z M 22.695312 17.554688 L 22.695312 18.488281 L 23.628906 18.488281 L 23.628906 17.554688 Z M 22.695312 14.757812 L 22.695312 15.6875 L 23.628906 15.6875 L 23.628906 14.757812 Z M 21.765625 26.878906 L 21.765625 27.8125 L 22.695312 27.8125 L 22.695312 26.878906 Z M 22.695312 25.011719 L 23.628906 25.011719 L 23.628906 25.945312 L 24.5625 25.945312 L 24.5625 25.011719 L 25.492188 25.011719 L 25.492188 24.082031 L 24.5625 24.082031 L 24.5625 23.148438 L 26.425781 23.148438 L 26.425781 21.285156 L 25.492188 21.285156 L 25.492188 22.214844 L 23.628906 22.214844 L 23.628906 24.082031 L 21.765625 24.082031 L 21.765625 25.011719 Z M 21.765625 19.417969 L 21.765625 20.351562 L 22.695312 20.351562 L 22.695312 19.417969 Z M 20.832031 28.742188 L 21.765625 28.742188 L 21.765625 27.8125 L 20.832031 27.8125 Z M 21.765625 25.011719 L 20.832031 25.011719 L 20.832031 26.878906 L 21.765625 26.878906 Z M 21.765625 23.148438 L 21.765625 22.214844 L 20.832031 22.214844 L 20.832031 24.082031 L 21.765625 24.082031 Z M 20.832031 18.488281 L 20.832031 19.417969 L 21.765625 19.417969 L 21.765625 18.488281 Z M 21.765625 14.757812 L 22.695312 14.757812 L 22.695312 13.824219 L 21.765625 13.824219 L 21.765625 12.890625 L 20.832031 12.890625 L 20.832031 17.554688 L 21.765625 17.554688 L 21.765625 16.621094 L 22.695312 16.621094 L 22.695312 15.6875 L 21.765625 15.6875 Z M 20.832031 24.082031 L 19.898438 24.082031 L 19.898438 25.011719 L 20.832031 25.011719 Z M 18.964844 23.148438 L 18.964844 24.082031 L 19.898438 24.082031 L 19.898438 23.148438 Z M 18.964844 22.214844 L 19.898438 22.214844 L 19.898438 21.285156 L 18.964844 21.285156 L 18.964844 18.488281 L 18.035156 18.488281 L 18.035156 21.285156 L 17.101562 21.285156 L 17.101562 22.214844 Z M 17.101562 36.203125 L 17.101562 37.136719 L 18.035156 37.136719 L 18.035156 35.269531 L 17.101562 35.269531 Z M 18.035156 26.878906 L 17.101562 26.878906 L 17.101562 27.8125 L 18.035156 27.8125 Z M 17.101562 24.082031 L 18.035156 24.082031 L 18.035156 23.148438 L 17.101562 23.148438 Z M 18.035156 14.757812 L 17.101562 14.757812 L 17.101562 15.6875 L 18.035156 15.6875 Z M 17.101562 7.296875 L 18.035156 7.296875 L 18.035156 5.433594 L 17.101562 5.433594 Z M 16.167969 29.675781 L 15.238281 29.675781 L 15.238281 25.011719 L 19.898438 25.011719 L 19.898438 29.675781 Z M 16.167969 28.742188 L 18.964844 28.742188 L 18.964844 25.945312 L 16.167969 25.945312 Z M 17.101562 18.488281 L 16.167969 18.488281 L 16.167969 19.417969 L 17.101562 19.417969 Z M 16.167969 17.554688 L 15.238281 17.554688 L 15.238281 12.890625 L 19.898438 12.890625 L 19.898438 17.554688 Z M 16.167969 16.621094 L 18.964844 16.621094 L 18.964844 13.824219 L 16.167969 13.824219 Z M 15.238281 37.136719 L 7.777344 37.136719 L 7.777344 38.066406 L 17.101562 38.066406 L 17.101562 37.136719 Z M 16.167969 21.285156 L 16.167969 19.417969 L 15.238281 19.417969 L 15.238281 22.214844 L 16.167969 22.214844 Z M 15.238281 7.296875 L 9.640625 7.296875 L 9.640625 14.757812 L 10.574219 14.757812 L 10.574219 8.230469 L 17.101562 8.230469 L 17.101562 7.296875 Z M 15.238281 11.027344 L 33.886719 11.027344 L 33.886719 10.09375 L 13.371094 10.09375 L 13.371094 11.027344 Z M 13.371094 29.675781 L 13.371094 11.027344 L 12.441406 11.027344 L 12.441406 31.539062 L 13.371094 31.539062 Z M 9.640625 29.675781 L 9.640625 35.269531 L 17.101562 35.269531 L 17.101562 34.335938 L 10.574219 34.335938 L 10.574219 27.8125 L 9.640625 27.8125 Z M 9.640625 27.8125 L 9.640625 26.878906 L 7.777344 26.878906 L 7.777344 27.8125 Z M 9.640625 5.433594 L 17.101562 5.433594 L 17.101562 4.5 L 7.777344 4.5 L 7.777344 5.433594 Z M 7.777344 14.757812 L 7.777344 15.6875 L 9.640625 15.6875 L 9.640625 14.757812 Z M 7.777344 35.269531 L 7.777344 27.8125 L 6.84375 27.8125 L 6.84375 37.136719 L 7.777344 37.136719 Z M 7.777344 13.824219 L 7.777344 5.433594 L 6.84375 5.433594 L 6.84375 14.757812 L 7.777344 14.757812 Z M 7.777344 13.824219 " fill-opacity="1" fill-rule="nonzero"/></g><path fill="#000000" d="M 16.167969 14.757812 L 16.167969 15.6875 L 17.101562 15.6875 L 17.101562 14.757812 Z M 15.238281 15.6875 L 15.238281 16.621094 L 16.167969 16.621094 L 16.167969 15.6875 Z M 17.101562 15.6875 L 17.101562 16.621094 L 18.035156 16.621094 L 18.035156 15.6875 Z M 18.035156 14.757812 L 18.035156 15.6875 L 18.964844 15.6875 L 18.964844 14.757812 Z M 18.964844 15.6875 L 18.964844 16.621094 L 19.898438 16.621094 L 19.898438 15.6875 Z M 19.898438 14.757812 L 19.898438 15.6875 L 20.832031 15.6875 L 20.832031 14.757812 Z M 20.832031 15.6875 L 20.832031 16.621094 L 21.765625 16.621094 L 21.765625 15.6875 Z M 21.765625 14.757812 L 21.765625 15.6875 L 22.695312 15.6875 L 22.695312 14.757812 Z M 22.695312 15.6875 L 22.695312 16.621094 L 23.628906 16.621094 L 23.628906 15.6875 Z M 16.167969 16.621094 L 16.167969 17.554688 L 17.101562 17.554688 L 17.101562 16.621094 Z M 15.238281 17.554688 L 15.238281 18.488281 L 16.167969 18.488281 L 16.167969 17.554688 Z M 14.304688 16.621094 L 14.304688 17.554688 L 15.238281 17.554688 L 15.238281 16.621094 Z M 14.304688 14.757812 L 14.304688 15.6875 L 15.238281 15.6875 L 15.238281 14.757812 Z M 13.371094 15.6875 L 13.371094 16.621094 L 14.304688 16.621094 L 14.304688 15.6875 Z M 17.101562 17.554688 L 17.101562 18.488281 L 18.035156 18.488281 L 18.035156 17.554688 Z M 18.035156 16.621094 L 18.035156 17.554688 L 18.964844 17.554688 L 18.964844 16.621094 Z M 18.964844 17.554688 L 18.964844 18.488281 L 19.898438 18.488281 L 19.898438 17.554688 Z M 19.898438 16.621094 L 19.898438 17.554688 L 20.832031 17.554688 L 20.832031 16.621094 Z M 20.832031 17.554688 L 20.832031 18.488281 L 21.765625 18.488281 L 21.765625 17.554688 Z M 21.765625 16.621094 L 21.765625 17.554688 L 22.695312 17.554688 L 22.695312 16.621094 Z M 22.695312 17.554688 L 22.695312 18.488281 L 23.628906 18.488281 L 23.628906 17.554688 Z M 13.371094 17.554688 L 13.371094 18.488281 L 14.304688 18.488281 L 14.304688 17.554688 Z M 16.167969 18.488281 L 16.167969 19.417969 L 17.101562 19.417969 L 17.101562 18.488281 Z M 15.238281 19.417969 L 15.238281 20.351562 L 16.167969 20.351562 L 16.167969 19.417969 Z M 14.304688 18.488281 L 14.304688 19.417969 L 15.238281 19.417969 L 15.238281 18.488281 Z M 17.101562 19.417969 L 17.101562 20.351562 L 18.035156 20.351562 L 18.035156 19.417969 Z M 18.035156 18.488281 L 18.035156 19.417969 L 18.964844 19.417969 L 18.964844 18.488281 Z M 18.964844 19.417969 L 18.964844 20.351562 L 19.898438 20.351562 L 19.898438 19.417969 Z M 19.898438 18.488281 L 19.898438 19.417969 L 20.832031 19.417969 L 20.832031 18.488281 Z M 20.832031 19.417969 L 20.832031 20.351562 L 21.765625 20.351562 L 21.765625 19.417969 Z M 21.765625 18.488281 L 21.765625 19.417969 L 22.695312 19.417969 L 22.695312 18.488281 Z M 13.371094 19.417969 L 13.371094 20.351562 L 14.304688 20.351562 L 14.304688 19.417969 Z M 16.167969 20.351562 L 16.167969 21.285156 L 17.101562 21.285156 L 17.101562 20.351562 Z M 15.238281 21.285156 L 15.238281 22.214844 L 16.167969 22.214844 L 16.167969 21.285156 Z M 14.304688 20.351562 L 14.304688 21.285156 L 15.238281 21.285156 L 15.238281 20.351562 Z M 17.101562 21.285156 L 17.101562 22.214844 L 18.035156 22.214844 L 18.035156 21.285156 Z M 18.035156 20.351562 L 18.035156 21.285156 L 18.964844 21.285156 L 18.964844 20.351562 Z M 18.964844 21.285156 L 18.964844 22.214844 L 19.898438 22.214844 L 19.898438 21.285156 Z M 19.898438 20.351562 L 19.898438 21.285156 L 20.832031 21.285156 L 20.832031 20.351562 Z M 20.832031 21.285156 L 20.832031 22.214844 L 21.765625 22.214844 L 21.765625 21.285156 Z M 13.371094 21.285156 L 13.371094 22.214844 L 14.304688 22.214844 L 14.304688 21.285156 Z M 16.167969 22.214844 L 16.167969 23.148438 L 17.101562 23.148438 L 17.101562 22.214844 Z M 15.238281 23.148438 L 15.238281 24.082031 L 16.167969 24.082031 L 16.167969 23.148438 Z M 14.304688 22.214844 L 14.304688 23.148438 L 15.238281 23.148438 L 15.238281 22.214844 Z M 17.101562 23.148438 L 17.101562 24.082031 L 18.035156 24.082031 L 18.035156 23.148438 Z M 18.035156 22.214844 L 18.035156 23.148438 L 18.964844 23.148438 L 18.964844 22.214844 Z M 18.964844 23.148438 L 18.964844 24.082031 L 19.898438 24.082031 L 19.898438 23.148438 Z M 19.898438 22.214844 L 19.898438 23.148438 L 20.832031 23.148438 L 20.832031 22.214844 Z M 20.832031 23.148438 L 20.832031 24.082031 L 21.765625 24.082031 L 21.765625 23.148438 Z M 13.371094 23.148438 L 13.371094 24.082031 L 14.304688 24.082031 L 14.304688 23.148438 Z M 16.167969 24.082031 L 16.167969 25.015625 L 17.101562 25.015625 L 17.101562 24.082031 Z M 15.238281 25.015625 L 15.238281 25.945312 L 16.167969 25.945312 L 16.167969 25.015625 Z M 14.304688 24.082031 L 14.304688 25.015625 L 15.238281 25.015625 L 15.238281 24.082031 Z M 17.101562 25.015625 L 17.101562 25.945312 L 18.035156 25.945312 L 18.035156 25.015625 Z M 18.035156 24.082031 L 18.035156 25.015625 L 18.964844 25.015625 L 18.964844 24.082031 Z M 18.964844 25.015625 L 18.964844 25.945312 L 19.898438 25.945312 L 19.898438 25.015625 Z M 19.898438 24.082031 L 19.898438 25.015625 L 20.832031 25.015625 L 20.832031 24.082031 Z M 20.832031 25.015625 L 20.832031 25.945312 L 21.765625 25.945312 L 21.765625 25.015625 Z M 21.765625 24.082031 L 21.765625 25.015625 L 22.695312 25.015625 L 22.695312 24.082031 Z M 22.695312 25.015625 L 22.695312 25.945312 L 23.628906 25.945312 L 23.628906 25.015625 Z M 13.371094 25.015625 L 13.371094 25.945312 L 14.304688 25.945312 L 14.304688 25.015625 Z M 23.628906 14.757812 L 23.628906 15.6875 L 24.5625 15.6875 L 24.5625 14.757812 Z M 24.5625 15.6875 L 24.5625 16.621094 L 25.492188 16.621094 L 25.492188 15.6875 Z M 23.628906 16.621094 L 23.628906 17.554688 L 24.5625 17.554688 L 24.5625 16.621094 Z M 24.5625 17.554688 L 24.5625 18.488281 L 25.492188 18.488281 L 25.492188 17.554688 Z M 25.492188 14.757812 L 25.492188 15.6875 L 26.425781 15.6875 L 26.425781 14.757812 Z M 26.425781 15.6875 L 26.425781 16.621094 L 27.359375 16.621094 L 27.359375 15.6875 Z M 25.492188 16.621094 L 25.492188 17.554688 L 26.425781 17.554688 L 26.425781 16.621094 Z M 23.628906 18.488281 L 23.628906 19.417969 L 24.5625 19.417969 L 24.5625 18.488281 Z M 25.492188 18.488281 L 25.492188 19.417969 L 26.425781 19.417969 L 26.425781 18.488281 Z M 26.425781 17.554688 L 26.425781 18.488281 L 27.359375 18.488281 L 27.359375 17.554688 Z M 22.695312 19.417969 L 22.695312 20.351562 L 23.628906 20.351562 L 23.628906 19.417969 Z M 24.5625 19.417969 L 24.5625 20.351562 L 25.492188 20.351562 L 25.492188 19.417969 Z M 26.425781 19.417969 L 26.425781 20.351562 L 27.359375 20.351562 L 27.359375 19.417969 Z M 22.695312 21.285156 L 22.695312 22.214844 L 23.628906 22.214844 L 23.628906 21.285156 Z M 24.5625 21.285156 L 24.5625 22.214844 L 25.492188 22.214844 L 25.492188 21.285156 Z M 26.425781 21.285156 L 26.425781 22.214844 L 27.359375 22.214844 L 27.359375 21.285156 Z M 22.695312 23.148438 L 22.695312 24.082031 L 23.628906 24.082031 L 23.628906 23.148438 Z M 24.5625 23.148438 L 24.5625 24.082031 L 25.492188 24.082031 L 25.492188 23.148438 Z M 24.5625 25.015625 L 24.5625 25.945312 L 25.492188 25.945312 L 25.492188 25.015625 Z M 26.425781 23.148438 L 26.425781 24.082031 L 27.359375 24.082031 L 27.359375 23.148438 Z M 26.425781 25.015625 L 26.425781 25.945312 L 27.359375 25.945312 L 27.359375 25.015625 Z M 27.359375 14.757812 L 27.359375 15.6875 L 28.289062 15.6875 L 28.289062 14.757812 Z M 28.289062 15.6875 L 28.289062 16.621094 L 29.222656 16.621094 L 29.222656 15.6875 Z M 27.359375 16.621094 L 27.359375 17.554688 L 28.289062 17.554688 L 28.289062 16.621094 Z M 28.289062 17.554688 L 28.289062 18.488281 L 29.222656 18.488281 L 29.222656 17.554688 Z M 27.359375 18.488281 L 27.359375 19.417969 L 28.289062 19.417969 L 28.289062 18.488281 Z M 21.765625 20.351562 L 21.765625 21.285156 L 22.695312 21.285156 L 22.695312 20.351562 Z M 23.628906 20.351562 L 23.628906 21.285156 L 24.5625 21.285156 L 24.5625 20.351562 Z M 25.492188 20.351562 L 25.492188 21.285156 L 26.425781 21.285156 L 26.425781 20.351562 Z M 27.359375 20.351562 L 27.359375 21.285156 L 28.289062 21.285156 L 28.289062 20.351562 Z M 21.765625 22.214844 L 21.765625 23.148438 L 22.695312 23.148438 L 22.695312 22.214844 Z M 23.628906 22.214844 L 23.628906 23.148438 L 24.5625 23.148438 L 24.5625 22.214844 Z M 25.492188 22.214844 L 25.492188 23.148438 L 26.425781 23.148438 L 26.425781 22.214844 Z M 23.628906 24.082031 L 23.628906 25.015625 L 24.5625 25.015625 L 24.5625 24.082031 Z M 25.492188 24.082031 L 25.492188 25.015625 L 26.425781 25.015625 L 26.425781 24.082031 Z M 27.359375 22.214844 L 27.359375 23.148438 L 28.289062 23.148438 L 28.289062 22.214844 Z M 28.289062 19.417969 L 28.289062 20.351562 L 29.222656 20.351562 L 29.222656 19.417969 Z M 28.289062 21.285156 L 28.289062 22.214844 L 29.222656 22.214844 L 29.222656 21.285156 Z M 28.289062 23.148438 L 28.289062 24.082031 L 29.222656 24.082031 L 29.222656 23.148438 Z M 27.359375 24.082031 L 27.359375 25.015625 L 28.289062 25.015625 L 28.289062 24.082031 Z M 28.289062 25.015625 L 28.289062 25.945312 L 29.222656 25.945312 L 29.222656 25.015625 Z M 29.222656 14.757812 L 29.222656 15.6875 L 30.15625 15.6875 L 30.15625 14.757812 Z M 30.15625 15.6875 L 30.15625 16.621094 L 31.089844 16.621094 L 31.089844 15.6875 Z M 29.222656 16.621094 L 29.222656 17.554688 L 30.15625 17.554688 L 30.15625 16.621094 Z M 30.15625 17.554688 L 30.15625 18.488281 L 31.089844 18.488281 L 31.089844 17.554688 Z M 29.222656 18.488281 L 29.222656 19.417969 L 30.15625 19.417969 L 30.15625 18.488281 Z M 30.15625 19.417969 L 30.15625 20.351562 L 31.089844 20.351562 L 31.089844 19.417969 Z M 29.222656 20.351562 L 29.222656 21.285156 L 30.15625 21.285156 L 30.15625 20.351562 Z M 30.15625 21.285156 L 30.15625 22.214844 L 31.089844 22.214844 L 31.089844 21.285156 Z M 29.222656 22.214844 L 29.222656 23.148438 L 30.15625 23.148438 L 30.15625 22.214844 Z M 30.15625 23.148438 L 30.15625 24.082031 L 31.089844 24.082031 L 31.089844 23.148438 Z M 29.222656 24.082031 L 29.222656 25.015625 L 30.15625 25.015625 L 30.15625 24.082031 Z M 30.15625 25.015625 L 30.15625 25.945312 L 31.089844 25.945312 L 31.089844 25.015625 Z M 31.089844 14.757812 L 31.089844 15.6875 L 32.019531 15.6875 L 32.019531 14.757812 Z M 32.019531 15.6875 L 32.019531 16.621094 L 32.953125 16.621094 L 32.953125 15.6875 Z M 31.089844 16.621094 L 31.089844 17.554688 L 32.019531 17.554688 L 32.019531 16.621094 Z M 32.019531 17.554688 L 32.019531 18.488281 L 32.953125 18.488281 L 32.953125 17.554688 Z M 31.089844 18.488281 L 31.089844 19.417969 L 32.019531 19.417969 L 32.019531 18.488281 Z M 32.019531 19.417969 L 32.019531 20.351562 L 32.953125 20.351562 L 32.953125 19.417969 Z M 31.089844 20.351562 L 31.089844 21.285156 L 32.019531 21.285156 L 32.019531 20.351562 Z M 32.019531 21.285156 L 32.019531 22.214844 L 32.953125 22.214844 L 32.953125 21.285156 Z M 31.089844 22.214844 L 31.089844 23.148438 L 32.019531 23.148438 L 32.019531 22.214844 Z M 32.019531 23.148438 L 32.019531 24.082031 L 32.953125 24.082031 L 32.953125 23.148438 Z M 31.089844 24.082031 L 31.089844 25.015625 L 32.019531 25.015625 L 32.019531 24.082031 Z M 32.019531 25.015625 L 32.019531 25.945312 L 32.953125 25.945312 L 32.953125 25.015625 Z M 32.953125 14.757812 L 32.953125 15.6875 L 33.886719 15.6875 L 33.886719 14.757812 Z M 32.953125 16.621094 L 32.953125 17.554688 L 33.886719 17.554688 L 33.886719 16.621094 Z M 32.953125 18.488281 L 32.953125 19.417969 L 33.886719 19.417969 L 33.886719 18.488281 Z M 32.953125 20.351562 L 32.953125 21.285156 L 33.886719 21.285156 L 33.886719 20.351562 Z M 32.953125 22.214844 L 32.953125 23.148438 L 33.886719 23.148438 L 33.886719 22.214844 Z M 32.953125 24.082031 L 32.953125 25.015625 L 33.886719 25.015625 L 33.886719 24.082031 Z M 16.167969 25.945312 L 16.167969 26.878906 L 17.101562 26.878906 L 17.101562 25.945312 Z M 15.238281 26.878906 L 15.238281 27.8125 L 16.167969 27.8125 L 16.167969 26.878906 Z M 14.304688 25.945312 L 14.304688 26.878906 L 15.238281 26.878906 L 15.238281 25.945312 Z M 17.101562 26.878906 L 17.101562 27.8125 L 18.035156 27.8125 L 18.035156 26.878906 Z M 18.035156 25.945312 L 18.035156 26.878906 L 18.964844 26.878906 L 18.964844 25.945312 Z M 18.964844 26.878906 L 18.964844 27.8125 L 19.898438 27.8125 L 19.898438 26.878906 Z M 19.898438 25.945312 L 19.898438 26.878906 L 20.832031 26.878906 L 20.832031 25.945312 Z M 20.832031 26.878906 L 20.832031 27.8125 L 21.765625 27.8125 L 21.765625 26.878906 Z M 21.765625 25.945312 L 21.765625 26.878906 L 22.695312 26.878906 L 22.695312 25.945312 Z M 22.695312 26.878906 L 22.695312 27.8125 L 23.628906 27.8125 L 23.628906 26.878906 Z M 13.371094 26.878906 L 13.371094 27.8125 L 14.304688 27.8125 L 14.304688 26.878906 Z M 24.5625 26.878906 L 24.5625 27.8125 L 25.492188 27.8125 L 25.492188 26.878906 Z M 26.425781 26.878906 L 26.425781 27.8125 L 27.359375 27.8125 L 27.359375 26.878906 Z M 23.628906 25.945312 L 23.628906 26.878906 L 24.5625 26.878906 L 24.5625 25.945312 Z M 25.492188 25.945312 L 25.492188 26.878906 L 26.425781 26.878906 L 26.425781 25.945312 Z M 27.359375 25.945312 L 27.359375 26.878906 L 28.289062 26.878906 L 28.289062 25.945312 Z M 28.289062 26.878906 L 28.289062 27.8125 L 29.222656 27.8125 L 29.222656 26.878906 Z M 29.222656 25.945312 L 29.222656 26.878906 L 30.15625 26.878906 L 30.15625 25.945312 Z M 30.15625 26.878906 L 30.15625 27.8125 L 31.089844 27.8125 L 31.089844 26.878906 Z M 31.089844 25.945312 L 31.089844 26.878906 L 32.019531 26.878906 L 32.019531 25.945312 Z M 32.019531 26.878906 L 32.019531 27.8125 L 32.953125 27.8125 L 32.953125 26.878906 Z M 32.953125 25.945312 L 32.953125 26.878906 L 33.886719 26.878906 L 33.886719 25.945312 Z M 16.167969 27.8125 L 16.167969 28.742188 L 17.101562 28.742188 L 17.101562 27.8125 Z M 15.238281 28.742188 L 15.238281 29.675781 L 16.167969 29.675781 L 16.167969 28.742188 Z M 14.304688 27.8125 L 14.304688 28.742188 L 15.238281 28.742188 L 15.238281 27.8125 Z M 17.101562 28.742188 L 17.101562 29.675781 L 18.035156 29.675781 L 18.035156 28.742188 Z M 18.035156 27.8125 L 18.035156 28.742188 L 18.964844 28.742188 L 18.964844 27.8125 Z M 18.964844 28.742188 L 18.964844 29.675781 L 19.898438 29.675781 L 19.898438 28.742188 Z M 19.898438 27.8125 L 19.898438 28.742188 L 20.832031 28.742188 L 20.832031 27.8125 Z M 20.832031 28.742188 L 20.832031 29.675781 L 21.765625 29.675781 L 21.765625 28.742188 Z M 21.765625 27.8125 L 21.765625 28.742188 L 22.695312 28.742188 L 22.695312 27.8125 Z M 22.695312 28.742188 L 22.695312 29.675781 L 23.628906 29.675781 L 23.628906 28.742188 Z M 13.371094 28.742188 L 13.371094 29.675781 L 14.304688 29.675781 L 14.304688 28.742188 Z M 24.5625 28.742188 L 24.5625 29.675781 L 25.492188 29.675781 L 25.492188 28.742188 Z M 26.425781 28.742188 L 26.425781 29.675781 L 27.359375 29.675781 L 27.359375 28.742188 Z M 23.628906 27.8125 L 23.628906 28.742188 L 24.5625 28.742188 L 24.5625 27.8125 Z M 25.492188 27.8125 L 25.492188 28.742188 L 26.425781 28.742188 L 26.425781 27.8125 Z M 27.359375 27.8125 L 27.359375 28.742188 L 28.289062 28.742188 L 28.289062 27.8125 Z M 28.289062 28.742188 L 28.289062 29.675781 L 29.222656 29.675781 L 29.222656 28.742188 Z M 29.222656 27.8125 L 29.222656 28.742188 L 30.15625 28.742188 L 30.15625 27.8125 Z M 30.15625 28.742188 L 30.15625 29.675781 L 31.089844 29.675781 L 31.089844 28.742188 Z M 31.089844 27.8125 L 31.089844 28.742188 L 32.019531 28.742188 L 32.019531 27.8125 Z M 32.019531 28.742188 L 32.019531 29.675781 L 32.953125 29.675781 L 32.953125 28.742188 Z M 32.953125 27.8125 L 32.953125 28.742188 L 33.886719 28.742188 L 33.886719 27.8125 Z M 16.167969 29.675781 L 16.167969 30.609375 L 17.101562 30.609375 L 17.101562 29.675781 Z M 15.238281 30.609375 L 15.238281 31.539062 L 16.167969 31.539062 L 16.167969 30.609375 Z M 14.304688 29.675781 L 14.304688 30.609375 L 15.238281 30.609375 L 15.238281 29.675781 Z M 17.101562 30.609375 L 17.101562 31.539062 L 18.035156 31.539062 L 18.035156 30.609375 Z M 18.035156 29.675781 L 18.035156 30.609375 L 18.964844 30.609375 L 18.964844 29.675781 Z M 18.964844 30.609375 L 18.964844 31.539062 L 19.898438 31.539062 L 19.898438 30.609375 Z M 19.898438 29.675781 L 19.898438 30.609375 L 20.832031 30.609375 L 20.832031 29.675781 Z M 20.832031 30.609375 L 20.832031 31.539062 L 21.765625 31.539062 L 21.765625 30.609375 Z M 21.765625 29.675781 L 21.765625 30.609375 L 22.695312 30.609375 L 22.695312 29.675781 Z M 22.695312 30.609375 L 22.695312 31.539062 L 23.628906 31.539062 L 23.628906 30.609375 Z M 13.371094 30.609375 L 13.371094 31.539062 L 14.304688 31.539062 L 14.304688 30.609375 Z M 24.5625 30.609375 L 24.5625 31.539062 L 25.492188 31.539062 L 25.492188 30.609375 Z M 26.425781 30.609375 L 26.425781 31.539062 L 27.359375 31.539062 L 27.359375 30.609375 Z M 23.628906 29.675781 L 23.628906 30.609375 L 24.5625 30.609375 L 24.5625 29.675781 Z M 25.492188 29.675781 L 25.492188 30.609375 L 26.425781 30.609375 L 26.425781 29.675781 Z M 27.359375 29.675781 L 27.359375 30.609375 L 28.289062 30.609375 L 28.289062 29.675781 Z M 28.289062 30.609375 L 28.289062 31.539062 L 29.222656 31.539062 L 29.222656 30.609375 Z M 29.222656 29.675781 L 29.222656 30.609375 L 30.15625 30.609375 L 30.15625 29.675781 Z M 30.15625 30.609375 L 30.15625 31.539062 L 31.089844 31.539062 L 31.089844 30.609375 Z M 31.089844 29.675781 L 31.089844 30.609375 L 32.019531 30.609375 L 32.019531 29.675781 Z M 32.019531 30.609375 L 32.019531 31.539062 L 32.953125 31.539062 L 32.953125 30.609375 Z M 32.953125 29.675781 L 32.953125 30.609375 L 33.886719 30.609375 L 33.886719 29.675781 Z M 16.167969 12.890625 L 16.167969 13.824219 L 17.101562 13.824219 L 17.101562 12.890625 Z M 15.238281 13.824219 L 15.238281 14.757812 L 16.167969 14.757812 L 16.167969 13.824219 Z M 17.101562 13.824219 L 17.101562 14.757812 L 18.035156 14.757812 L 18.035156 13.824219 Z M 18.035156 12.890625 L 18.035156 13.824219 L 18.964844 13.824219 L 18.964844 12.890625 Z M 18.964844 13.824219 L 18.964844 14.757812 L 19.898438 14.757812 L 19.898438 13.824219 Z M 19.898438 12.890625 L 19.898438 13.824219 L 20.832031 13.824219 L 20.832031 12.890625 Z M 20.832031 13.824219 L 20.832031 14.757812 L 21.765625 14.757812 L 21.765625 13.824219 Z M 21.765625 12.890625 L 21.765625 13.824219 L 22.695312 13.824219 L 22.695312 12.890625 Z M 22.695312 13.824219 L 22.695312 14.757812 L 23.628906 14.757812 L 23.628906 13.824219 Z M 14.304688 12.890625 L 14.304688 13.824219 L 15.238281 13.824219 L 15.238281 12.890625 Z M 13.371094 13.824219 L 13.371094 14.757812 L 14.304688 14.757812 L 14.304688 13.824219 Z M 23.628906 12.890625 L 23.628906 13.824219 L 24.5625 13.824219 L 24.5625 12.890625 Z M 24.5625 13.824219 L 24.5625 14.757812 L 25.492188 14.757812 L 25.492188 13.824219 Z M 25.492188 12.890625 L 25.492188 13.824219 L 26.425781 13.824219 L 26.425781 12.890625 Z M 26.425781 13.824219 L 26.425781 14.757812 L 27.359375 14.757812 L 27.359375 13.824219 Z M 27.359375 12.890625 L 27.359375 13.824219 L 28.289062 13.824219 L 28.289062 12.890625 Z M 28.289062 13.824219 L 28.289062 14.757812 L 29.222656 14.757812 L 29.222656 13.824219 Z M 29.222656 12.890625 L 29.222656 13.824219 L 30.15625 13.824219 L 30.15625 12.890625 Z M 30.15625 13.824219 L 30.15625 14.757812 L 31.089844 14.757812 L 31.089844 13.824219 Z M 31.089844 12.890625 L 31.089844 13.824219 L 32.019531 13.824219 L 32.019531 12.890625 Z M 32.019531 13.824219 L 32.019531 14.757812 L 32.953125 14.757812 L 32.953125 13.824219 Z M 32.953125 12.890625 L 32.953125 13.824219 L 33.886719 13.824219 L 33.886719 12.890625 Z M 16.167969 11.027344 L 16.167969 11.960938 L 17.101562 11.960938 L 17.101562 11.027344 Z M 15.238281 11.960938 L 15.238281 12.890625 L 16.167969 12.890625 L 16.167969 11.960938 Z M 17.101562 11.960938 L 17.101562 12.890625 L 18.035156 12.890625 L 18.035156 11.960938 Z M 18.035156 11.027344 L 18.035156 11.960938 L 18.964844 11.960938 L 18.964844 11.027344 Z M 18.964844 11.960938 L 18.964844 12.890625 L 19.898438 12.890625 L 19.898438 11.960938 Z M 19.898438 11.027344 L 19.898438 11.960938 L 20.832031 11.960938 L 20.832031 11.027344 Z M 20.832031 11.960938 L 20.832031 12.890625 L 21.765625 12.890625 L 21.765625 11.960938 Z M 21.765625 11.027344 L 21.765625 11.960938 L 22.695312 11.960938 L 22.695312 11.027344 Z M 22.695312 11.960938 L 22.695312 12.890625 L 23.628906 12.890625 L 23.628906 11.960938 Z M 14.304688 11.027344 L 14.304688 11.960938 L 15.238281 11.960938 L 15.238281 11.027344 Z M 13.371094 11.960938 L 13.371094 12.890625 L 14.304688 12.890625 L 14.304688 11.960938 Z M 23.628906 11.027344 L 23.628906 11.960938 L 24.5625 11.960938 L 24.5625 11.027344 Z M 24.5625 11.960938 L 24.5625 12.890625 L 25.492188 12.890625 L 25.492188 11.960938 Z M 25.492188 11.027344 L 25.492188 11.960938 L 26.425781 11.960938 L 26.425781 11.027344 Z M 26.425781 11.960938 L 26.425781 12.890625 L 27.359375 12.890625 L 27.359375 11.960938 Z M 27.359375 11.027344 L 27.359375 11.960938 L 28.289062 11.960938 L 28.289062 11.027344 Z M 28.289062 11.960938 L 28.289062 12.890625 L 29.222656 12.890625 L 29.222656 11.960938 Z M 29.222656 11.027344 L 29.222656 11.960938 L 30.15625 11.960938 L 30.15625 11.027344 Z M 30.15625 11.960938 L 30.15625 12.890625 L 31.089844 12.890625 L 31.089844 11.960938 Z M 31.089844 11.027344 L 31.089844 11.960938 L 32.019531 11.960938 L 32.019531 11.027344 Z M 32.019531 11.960938 L 32.019531 12.890625 L 32.953125 12.890625 L 32.953125 11.960938 Z M 32.953125 11.027344 L 32.953125 11.960938 L 33.886719 11.960938 L 33.886719 11.027344 Z M 32.953125 11.027344 " fill-opacity="0.05" fill-rule="nonzero"/><path fill="#ffffff" d="M 39.480469 5.433594 L 39.480469 14.757812 L 38.546875 14.757812 L 38.546875 5.433594 Z M 37.613281 27.8125 L 37.613281 28.742188 L 38.546875 28.742188 L 38.546875 37.136719 L 39.480469 37.136719 L 39.480469 27.8125 Z M 16.167969 36.203125 L 16.167969 37.136719 L 17.101562 37.136719 L 17.101562 35.269531 L 16.167969 35.269531 Z M 16.167969 6.363281 L 16.167969 7.296875 L 17.101562 7.296875 L 17.101562 5.433594 L 16.167969 5.433594 Z M 8.710938 28.742188 L 8.710938 35.269531 L 9.640625 35.269531 L 9.640625 27.8125 L 8.710938 27.8125 Z M 8.710938 8.230469 L 8.710938 14.757812 L 9.640625 14.757812 L 9.640625 7.296875 L 8.710938 7.296875 Z M 8.710938 8.230469 " fill-opacity="0.6" fill-rule="nonzero"/><path fill="#000000" d="M 32.019531 30.609375 L 14.304688 30.609375 L 14.304688 11.027344 L 13.371094 11.027344 L 13.371094 31.539062 L 33.886719 31.539062 L 33.886719 30.609375 Z M 30.15625 36.203125 L 30.15625 37.136719 L 31.089844 37.136719 L 31.089844 35.269531 L 30.15625 35.269531 Z M 31.089844 6.363281 L 31.089844 5.433594 L 30.15625 5.433594 L 30.15625 7.296875 L 31.089844 7.296875 Z M 7.777344 37.136719 L 8.710938 37.136719 L 8.710938 36.203125 L 7.777344 36.203125 Z M 7.777344 6.363281 L 8.710938 6.363281 L 8.710938 5.433594 L 7.777344 5.433594 Z M 7.777344 6.363281 " fill-opacity="0.3" fill-rule="nonzero"/></svg>